  <svg xmlns="http://www.w3.org/2000/svg" viewBox="0 0 200 240" height="240" width="200">
    <!-- Original hexagon and logo -->
    <g transform="translate(0, 0)">
      <polygon stroke-width="4" stroke="#336791" fill="transparent" points="100,20 170,60 170,140 100,180 30,140 30,60"></polygon>
      
      <g transform="translate(49, 49) scale(0.23)">
        <path style="stroke:#000;stroke-width:37.3953px" transform="translate(-0.5 0)" d="M323.21,324.23c2.83-23.6,2-27.06,19.56-23.24l4.46.39c13.52.62,31.2-2.17,41.59-7,22.36-10.38,35.62-27.7,13.57-23.15-50.3,10.38-53.75-6.66-53.75-6.66,53.11-78.8,75.31-178.84,56.15-203.32C352.51-5.53,262,26,260.52,26.87L260,27a179.3,179.3,0,0,0-33.55-3.5c-22.76-.37-40,6-53.13,15.9,0,0-161.41-66.5-153.9,83.63,1.6,31.94,45.78,241.65,98.47,178.31,19.26-23.16,37.87-42.75,37.87-42.75a48.85,48.85,0,0,0,31.91,8.15l.9-.77a35,35,0,0,0,.36,9c-13.57,15.17-9.58,17.83-36.72,23.42-27.46,5.66-11.33,15.73-.8,18.37,12.77,3.19,42.31,7.72,62.27-20.22l-.79,3.19c5.32,4.26,5,30.62,5.72,49.45s2,36.41,5.86,46.77,8.37,37,44,29.41c29.81-6.39,52.6-15.58,54.68-101.11"></path>
        <path style="fill:#336791" transform="translate(-0.5 0)" d="M402.4,271.23c-50.3,10.38-53.76-6.66-53.76-6.66,53.11-78.81,75.31-178.84,56.15-203.33C352.52-5.54,262,26,260.53,26.87L260,27a179.39,179.39,0,0,0-33.56-3.5c-22.76-.37-40,6-53.13,15.9,0,0-161.41-66.5-153.9,83.63C21,154.93,65.23,364.65,117.92,301.3c19.26-23.16,37.87-42.75,37.87-42.75a48.85,48.85,0,0,0,31.91,8.15l.9-.77a35.17,35.17,0,0,0,.36,9c-13.58,15.17-9.59,17.83-36.72,23.42-27.46,5.66-11.33,15.73-.8,18.37,12.77,3.19,42.31,7.72,62.27-20.22l-.8,3.19c5.32,4.26,9.05,27.71,8.43,49s-1,35.85,3.15,47.25,8.37,37,44,29.41c29.81-6.39,45.26-22.94,47.41-50.55,1.53-19.63,5-16.73,5.19-34.28l2.77-8.31c3.19-26.61.51-35.2,18.87-31.2l4.46.39c13.52.62,31.21-2.17,41.59-7,22.36-10.38,35.62-27.7,13.57-23.15Z"></path>
        <path style="fill:none;stroke:#fff;stroke-linecap:round;stroke-linejoin:round;stroke-width:12.465100000000001px" transform="translate(-0.5 0)" d="M215.87,286.48c-1.39,49.52.35,99.38,5.19,111.49s15.22,35.69,50.9,28c29.81-6.39,40.65-18.76,45.36-46.05,3.46-20.08,10.15-75.85,11-87.28"></path>
        <path style="fill:none;stroke:#fff;stroke-linecap:round;stroke-linejoin:round;stroke-width:12.465100000000001px" transform="translate(-0.5 0)" d="M173.1,38.26s-161.52-66-154,84.11C20.69,154.3,64.87,364,117.56,300.68c19.26-23.17,36.67-41.34,36.67-41.34"></path>
        <path style="fill:none;stroke:#fff;stroke-linecap:round;stroke-linejoin:round;stroke-width:12.465100000000001px" transform="translate(-0.5 0)" d="M260.35,26.21C254.76,28,350.2-8.68,404.44,60.62c19.16,24.48-3,124.52-56.15,203.33"></path>
        <path style="fill:none;stroke:#fff;stroke-linecap:round;stroke-linejoin:bevel;stroke-width:12.465100000000001px" transform="translate(-0.5 0)" d="M348.28,264s3.46,17,53.76,6.65c22-4.55,8.78,12.77-13.58,23.16-18.35,8.51-59.47,10.7-60.15-1.07-1.73-30.35,21.65-21.13,20-28.74-1.53-6.85-12-13.57-18.89-30.34-6-14.63-82.8-126.85,21.29-110.18,3.81-.79-27.15-99-124.55-100.6s-94.19,119.76-94.19,119.76"></path>
        <path style="fill:none;stroke:#fff;stroke-linecap:round;stroke-linejoin:round;stroke-width:12.465100000000001px" transform="translate(-0.5 0)" d="M188.6,274.33C175,289.5,179,292.16,151.88,297.75c-27.46,5.66-11.33,15.73-.8,18.37,12.77,3.19,42.31,7.72,62.27-20.23,6.08-8.51,0-22.09-8.39-25.55C200.93,268.67,195.54,266.58,188.6,274.33Z"></path>
        <path style="fill:none;stroke:#fff;stroke-linecap:round;stroke-linejoin:round;stroke-width:12.465100000000001px" transform="translate(-0.5 0)" d="M187.71,274.07c-1.37-8.92,2.93-19.53,7.54-31.94,6.92-18.63,22.89-37.25,10.12-96.34-9.52-44-73.4-9.16-73.44-3.19s2.89,30.26-1.07,58.55c-5.16,36.91,23.49,68.13,56.48,64.94"></path>
        <path style="fill:#fff;stroke:#fff;stroke-width:4.155px" transform="translate(-0.5 0)" d="M172.52,141.7c-.29,2,3.73,7.48,9,8.21s9.71-3.52,10-5.56-3.73-4.29-9-5-9.72.33-10,2.37Z"></path>
        <path style="fill:#fff;stroke:#fff;stroke-width:2.0775px" transform="translate(-0.5 0)" d="M331.94,137.54c.28,2-3.73,7.48-9,8.21s-9.72-3.52-10-5.56,3.74-4.28,9-5,9.72.33,10,2.37Z"></path>
        <path style="fill:none;stroke:#fff;stroke-linecap:round;stroke-linejoin:round;stroke-width:12.465100000000001px" transform="translate(-0.5 0)" d="M350.68,123.43c.86,16-3.45,26.89-4,43.91-.8,24.75,11.8,53.07-7.19,81.44"></path>
      </g>
    </g>
    
    <!-- Label -->
    <text x="100" y="220" text-anchor="middle" font-family="Monaco, Consolas, monospace" font-size="20" font-weight="bold" fill="#336791">PostgreSQL</text>
  </svg>