  <svg xmlns="http://www.w3.org/2000/svg" viewBox="0 0 200 240" width="200" height="240">
      <!-- Hexagon and Logo group -->
      <g transform="translate(0, 0)">
          <!-- Hexagon -->
          <polygon 
              stroke="#3ECF8E" 
              stroke-width="4" 
              fill="transparent" 
              points="100,20 170,60 170,140 100,180 30,140 30,60"
          />
          
          <!-- Supabase Logo (scaled and centered) -->
          <g transform="translate(50, 43.5) scale(0.92)">
              <path style="fill:#3ECF8E;fill-rule:nonzero;" d="M45.317,2.071C48.176,-1.53 53.975,0.443 54.043,5.041L54.485,72.292L9.831,72.292C1.64,72.292 -2.928,62.832 2.166,56.417L45.317,2.071Z"/>
              <path style="fill:url(#_Linear1);fill-rule:nonzero;" d="M63.708,110.284C60.848,113.885 55.05,111.912 54.981,107.314L53.974,40.063L99.194,40.063C107.384,40.063 111.952,49.523 106.859,55.937L63.708,110.284Z"/>
              <path style="fill:url(#_Linear2);fill-rule:nonzero;" d="M63.708,110.284C60.848,113.885 55.05,111.912 54.981,107.314L53.974,40.063L99.194,40.063C107.384,40.063 111.952,49.523 106.859,55.937L63.708,110.284Z"/>
          </g>
      </g>

      <!-- Label -->
      <text x="100" y="220" text-anchor="middle" font-family="Monaco, Consolas, monospace" font-size="20" font-weight="bold" fill="#3ECF8E">Supabase</text>
      
      <!-- Gradients -->
      <defs>
          <linearGradient id="_Linear1" x1="0" y1="0" x2="1" y2="0" gradientUnits="userSpaceOnUse" gradientTransform="matrix(40.1897,16.8555,-16.8555,40.1897,53.9738,54.9738)">
              <stop offset="0" style="stop-color:rgb(36,147,97);stop-opacity:1"/>
              <stop offset="1" style="stop-color:rgb(62,207,142);stop-opacity:1"/>
          </linearGradient>
          <linearGradient id="_Linear2" x1="0" y1="0" x2="1" y2="0" gradientUnits="userSpaceOnUse" gradientTransform="matrix(18.3286,34.5025,-34.5025,18.3286,36.1558,30.5779)">
              <stop offset="0" style="stop-color:black;stop-opacity:0.2"/>
              <stop offset="1" style="stop-color:black;stop-opacity:0"/>
          </linearGradient>
      </defs>
  </svg>